# xmcd
#
# Track frame offsets: 
#        150
#        25010
#        53689
#        74047
#        100050
#        122814
#        157862
#        181161
#        201366
#        221413
#
# Disc length: 3473 seconds
#
# Revision: 0
# Processed by: cddbd v1.5.2PL0 Copyright (c) Steve Scherf et al.
# Submitted via: ExactAudioCopy v1.0b3
#
DISCID=850d8f0a
DTITLE=Various Artist - Tinh ca Tram Tu Thieng 2
DYEAR=2007
DGENRE=
TTITLE0=Ha Vy, Manh Dinh - Trom nhin nhau
TTITLE1=Phi Nhung - Roi 20 nam sau
TTITLE2=Thanh Tuyen - 7000 dem gop lai
TTITLE3=Tuan Vu - Bai huong ca vo tan
TTITLE4=Thien Trang - Hoi Hue co thuong khong
TTITLE5=Nhat Truong, My Lan - Do doc
TTITLE6=Thanh Thuy - Ai bieu anh lam thinh
TTITLE7=Huong Lan - Dua em vao ha
TTITLE8=Son Tuyen - Me Hau Giang
TTITLE9=Thai Chau, Phi Nhung - Mot doi ao me ao em
EXTD=
EXTT0=
EXTT1=
EXTT2=
EXTT3=
EXTT4=
EXTT5=
EXTT6=
EXTT7=
EXTT8=
EXTT9=
PLAYORDER=
